<svg xmlns="http://www.w3.org/2000/svg" xmlns:xlink="http://www.w3.org/1999/xlink" style="enable-background:new 0 0 512 512" id="Layer_1" width="512" height="512" x="0" y="0" version="1.1" viewBox="0 0 512 512" xml:space="preserve"><g><polygon style="fill:#fff5f5" points="512 120 512 482 181 482 181 0 392 0"/><polygon style="fill:#efe2dd" points="512 120 512 482 346 482 346 0 392 0"/><polygon style="fill:#cdbfba" points="443.211 0 392 0 392 120 512 120 512 68.789"/><path style="fill:#47568c" d="M136,60l60.601,301l24,80.499L331,386.3V255C331,147.299,243.701,60,136,60z"/><path style="fill:#ff641a" d="M271,270v182l-28.2,30H106l-45-30v-30c0-31.8,17.1-62.5,44.7-78.701 c28.2-16.8,45.3-45.099,45.3-74.5v-6.899c-10.499,0-21-2.401-30.3-7.2c-18.6-9-41.4-9-59.7,0.3l-30,15L0,210l121-90V60h15 c11.7,0,22.2,4.499,30,11.7c9.3,8.099,15,20.099,15,33.3v27.599C235.6,156.599,271,210.3,271,270z"/><path style="fill:#e63950" d="M271,270v182l-28.2,30H166V71.7c9.3,8.099,15,20.099,15,33.3v27.599 C235.6,156.599,271,210.3,271,270z"/><rect style="fill:#61729b" width="30" height="30" x="106" y="165"/><rect style="fill:#61729b" width="210" height="60" x="61" y="452"/><rect style="fill:#47568c" width="105" height="60" x="166" y="452"/></g></svg>